# xmcd CD database file
#
# Track frame offsets:
#	150
#	23136
#	45704
#	69644
#	90578
#	113419
#	125659
#	137509
#	160279
#	173837
#	195201
#	214844
#	233841
#	243536
#	260781
#
# Disc length: 3622 seconds
#
# Revision: 0
# Processed by: cddbd v1.5.2PL0 Copyright (c) Steve Scherf et al.
# Submitted via: CDex 1.51
#
DISCID=cd0e240f
DTITLE=Chet Baker and Bud Shank - Chet Baker - Bud Shank: 1958 and 1959 
DYEAR=1959
DGENRE=Jazz
TTITLE0=Pent-Up House
TTITLE1=My Old Flame
TTITLE2=Indian Summer
TTITLE3=Look For The Silver Lining
TTITLE4=My Funny Valentine
TTITLE5=I'll Take Romance
TTITLE6=These Foolish Things
TTITLE7=Deep Purple
TTITLE8=What A Difference A Day Made
TTITLE9=How Deep Is The Ocean?
TTITLE10=Smoke Gets In Your Eyes
TTITLE11=Embraceable You
TTITLE12=But Not For Me
TTITLE13=Someone To Watch Over Me
TTITLE14=Blue Room
EXTD=YEAR: 1959
EXTT0=
EXTT1=
EXTT2=
EXTT3=
EXTT4=
EXTT5=
EXTT6=
EXTT7=
EXTT8=
EXTT9=
EXTT10=
EXTT11=
EXTT12=
EXTT13=
EXTT14=
PLAYORDER=
